<?xml version="1.0" encoding="utf-8"?>
<svg viewBox="0 0 400 400" xmlns="http://www.w3.org/2000/svg" xmlns:bx="https://boxy-svg.com">
  <ellipse style="fill: rgb(216, 216, 216); " cx="200" cy="200" rx="200" ry="200"/>
  <path style="fill: rgb(216, 216, 216); stroke: rgb(255, 255, 255); stroke-width: 10; transform-origin: 102.318px 194.502px;" d="M 22.637 151.32 L 182.876 149.943 C 196.144 167.993 199.776 219.773 179.276 237.941 L 25.446 239.06 C 10.442 231.232 3.291 169.579 22.637 151.32 Z" transform="matrix(0.069756001234, -0.997564136982, 0.997564136982, 0.069756001234, 1.52739e-7, 0.000026306186)"/>
  <path style="fill: rgb(216, 216, 216); stroke: rgb(255, 255, 255); stroke-width: 10; transform-origin: 202.919px 117.765px;" d="M 123.238 74.583 L 283.477 73.206 C 296.745 91.256 300.377 143.036 279.877 161.204 L 126.047 162.323 C 111.043 154.495 103.892 92.842 123.238 74.583 Z" transform="matrix(0.292371064425, -0.956305027008, 0.956305027008, 0.292371064425, -0.000007539735, 0.000001443533)"/>
  <path style="fill: rgb(216, 216, 216); stroke: rgb(255, 255, 255); stroke-width: 10; transform-origin: 244.669px 238.148px;" d="M 164.988 194.967 L 325.227 193.59 C 338.495 211.64 342.127 263.42 321.627 281.588 L 167.797 282.707 C 152.793 274.879 145.642 213.226 164.988 194.967 Z" transform="matrix(0.669131100178, -0.743145108223, 0.743145108223, 0.669131100178, 0.000037282311, 0.00002438906)"/>
  <path style="fill: rgb(216, 216, 216); stroke: rgb(255, 255, 255); stroke-width: 10; transform-origin: 261.019px 286.227px;" d="M 181.338 243.044 L 341.576 241.667 C 354.844 259.717 358.476 311.497 337.976 329.665 L 184.147 330.784 C 169.143 322.956 161.992 261.303 181.338 243.044 Z" transform="matrix(0.913545131683, -0.406737059355, 0.406737059355, 0.913545131683, 0.00001734993, 0.000024862178)"/>
  <path d="M 209.473 168.07 H 263.896 L 259.378 154.905 L 315.398 180.542 L 259.378 206.179 L 263.896 193.014 H 209.473 V 168.07 Z" style="fill: rgb(216, 216, 216); stroke: rgb(255, 255, 255); stroke-width: 10; transform-origin: 262.436px 180.542px;" transform="matrix(-0.292442053556, 0.956282973289, -0.956282973289, -0.292442053556, -80.366354607927, -1.614942679309)" bx:shape="arrow 209.473 154.905 105.925 51.274 24.944 56.02 4.518 1@9f3d6e51"/>
</svg>