<?xml version="1.0" encoding="UTF-8"?>
<svg xmlns="http://www.w3.org/2000/svg" xmlns:xlink="http://www.w3.org/1999/xlink" version="1.1" viewBox="0 0 400 79.3">
  <defs>
    <style>
      .cls-1 {
        fill: url(#linear-gradient);
        stroke: #231f20;
        stroke-miterlimit: 10;
      }
    </style>
    <linearGradient id="linear-gradient" x1="-.1" y1="39.8" x2="399.9" y2="39.8" gradientUnits="userSpaceOnUse">
      <stop offset="0" stop-color="#549400"/>
      <stop offset=".3" stop-color="#aa9300"/>
      <stop offset=".7" stop-color="#d45e00"/>
      <stop offset="1" stop-color="#940010"/>
    </linearGradient>
  </defs>
  <!-- Generator: Adobe Illustrator 28.6.0, SVG Export Plug-In . SVG Version: 1.2.0 Build 709)  -->
  <g>
    <g id="Layer_1">
      <path class="cls-1" d="M-.1,73.2c6.5-5.3,11-14.8,20.2-38.6C27.7,14.9,28.5,6.6,25.1,1.9,32.4-.2,41.1.1,46.1,1.3c9.7,2.4,12.5,10.2,19,35.1,3.3,13,7.8,36,16.4,36-6.9,5.9-14.1,6.5-18,6.5-11.9,0-15.3-5.6-17.9-15.1-.6-2.3-1.3-5.1-2.1-8.3-1.5,6.3-5.1,9.1-8.7,9.1s-4.3-.8-6.3-2.3c-3.7,11.2-8.4,16.7-17.2,16.7s-8.5-1-11.4-5.7ZM42,48.6c-1.4-7-3-15.3-4.5-24.4-1.5,8.9-3.4,17.2-5.3,24.7,3.2,0,6.7-.1,9.8-.3ZM81.6,55.6c0-17.9,0-26.2-5-28.6,4.6-4.4,10.5-5.2,13.7-5.2,8.4,0,11.2,4.5,11.3,15.2v16.4c.2,8.6,2.6,11.7,5.9,11.7,4.7,0,6.9-6.8,7.3-19.5-.2-5.6-.4-11.8-.5-17.9-.1-3.8,6.3-5.4,12-5.4s6.7.6,9.1,1.3c-.4,7-.7,13.5-.7,19.3,0,20.6.1,28.9,5,33.5-4.5,2.3-9.3,2.6-12.5,2.5-6.9-.1-11.2-2.7-12.1-9.5-4,7.8-10.3,9.9-15.1,9.9s-18.5-.5-18.5-23.7ZM147.6,59.1v-9.8c0-2.7-.1-6.7-.2-11.7h-6.5c-2.3-1.1-1.8-14,2.7-14h3.5v-1.3c-.3-12,15.2-14.4,21.3-12.7-.2,4-.4,7.8-.5,14h8.4c2.3,1.1,1.8,14-2.7,14h-5.8v5.6c0,20.2,2.2,28.5,9.1,28.7-4.6,5.8-12.4,6.8-16.4,6.8-10.9,0-12.7-9-12.7-19.7ZM184.2,55.6c0-17.9,0-26.2-5-28.6,4.6-4.4,10.5-5.2,13.7-5.2,8.4,0,11.2,4.5,11.3,15.2v16.4c.2,8.6,2.6,11.7,5.9,11.7,4.7,0,6.9-6.8,7.3-19.5-.2-5.6-.4-11.8-.5-17.9-.1-3.8,6.3-5.4,12-5.4s6.7.6,9.1,1.3c-.4,7-.7,13.5-.7,19.3,0,20.6.1,28.9,5,33.5-4.5,2.3-9.3,2.6-12.5,2.5-6.9-.1-11.2-2.7-12.1-9.5-4,7.8-10.3,9.9-15.1,9.9s-18.5-.5-18.5-23.7ZM248,76.9c1.1-25.8.1-46.3-.6-53.6,3.5,1.5,7.2,1.8,9.9,1.8,8.5,0,13.9-3.3,22.8-3.3s11.2,2,14.1,5.5c5.7-4.2,11.6-5.5,16.8-5.5,18.3,0,20.6,12.7,20.6,29.9s0,20,5,22.4c-3.6,4.4-9.4,5.2-12.6,5.2-8.5,0-12.4-4.5-12.4-15.2v-12.7c0-12.4-.4-17.6-6.9-17.6s-3.9.4-6.5,2.7c1,4.4,1.2,9.7,1.2,15.6s.4,14.4.7,21.5c.1,3.8-6.3,5.4-10.9,5.4s-6.7-.7-9-1.9c.4-9.4.5-18,.4-25.6-.2-12.4-1-17.9-7.4-17.9s-2.9.2-4.9.9c-.3,13.4.3,25.8.7,39.2.1,3.8-6.3,5.4-12,5.4s-6.7-.7-9-1.9ZM374.8,64v-12.7c0-14-2.3-20.4-13.4-17.1-.3,13.4.3,25.8.7,39.2.1,3.8-6.3,5.4-12,5.4s-6.7-.7-9-1.9c.3-8.2.4-16,.4-22.9,0-14.7-.5-25.7-1.1-30.7,3.5,1.5,7.2,1.8,9.9,1.8,8.5,0,13.9-3.3,22.8-3.3,18.3,0,21.7,12.7,21.7,29.9s0,20,5,22.4c-3.6,4.4-9.4,5.2-12.6,5.2-8.4,0-12.4-4.5-12.4-15.2Z"/>
    </g>
  </g>
</svg>