<?xml version="1.0" encoding="UTF-8"?>
<svg xmlns="http://www.w3.org/2000/svg" xmlns:xlink="http://www.w3.org/1999/xlink" version="1.1" viewBox="0 0 400 400">
  <defs>
    <style>
      .cls-1 {
        fill: url(#linear-gradient);
      }

      .cls-2 {
        fill: #fff;
        opacity: .6;
      }

      .cls-3, .cls-4 {
        fill: #ed1c24;
      }

      .cls-4 {
        opacity: .4;
      }
    </style>
    <linearGradient id="linear-gradient" x1="286.4" y1="273.9" x2="348.6" y2="336.1" gradientUnits="userSpaceOnUse">
      <stop offset=".2" stop-color="#000" stop-opacity="0"/>
      <stop offset="1" stop-color="#000" stop-opacity=".5"/>
    </linearGradient>
  </defs>
  <!-- Generator: Adobe Illustrator 28.6.0, SVG Export Plug-In . SVG Version: 1.2.0 Build 709)  -->
  <g>
    <g id="Layer_1">
      <circle class="cls-3" cx="200" cy="200" r="200"/>
      <path class="cls-1" d="M395.5,165.7c6.9,1.5,14,102.6-45.8,169-30.1,33.5-68.9,48.9-74.7,51.2-25.1,9.7-46.1,11.6-63.2,13.2-11.5,1-17.3,1.5-17.9-.2-2.3-6.9,196.1-234.4,201.6-233.2Z"/>
      <circle class="cls-4" cx="200" cy="200" r="190"/>
      <path class="cls-2" d="M38.7,165.6c-3.9-1.1-1.2-52.2,36.8-91.9,33.9-35.4,82.6-47.6,84.5-44.7,1.7,2.6-33.9,15.9-68.2,51.4-41.8,43.3-49.6,86.3-53.2,85.2Z"/>
    </g>
  </g>
</svg>