<?xml version="1.0" encoding="UTF-8"?>
<svg xmlns="http://www.w3.org/2000/svg" version="1.1" viewBox="0 0 215.3 214.7">
  <defs>
    <style>
      .cls-1 {
        fill: #80ff00;
      }

      .cls-1, .cls-2, .cls-3, .cls-4, .cls-5, .cls-6, .cls-7, .cls-8, .cls-9, .cls-10, .cls-11, .cls-12 {
        stroke: #000;
        stroke-miterlimit: 10;
        stroke-width: .8px;
      }

      .cls-2 {
        fill: #00ff7f;
      }

      .cls-3 {
        fill: aqua;
      }

      .cls-4 {
        fill: #ab00ff;
      }

      .cls-5 {
        fill: lime;
      }

      .cls-6 {
        fill: #05f;
      }

      .cls-7 {
        fill: #2b00ff;
      }

      .cls-8 {
        fill: #ff8000;
      }

      .cls-9 {
        fill: #ff00d4;
      }

      .cls-10 {
        fill: #ff0;
      }

      .cls-11 {
        fill: red;
      }

      .cls-12 {
        fill: #ff0080;
      }
    </style>
  </defs>
  <!-- Generator: Adobe Illustrator 28.6.0, SVG Export Plug-In . SVG Version: 1.2.0 Build 709)  -->
  <g>
    <g id="Layer_1">
      <path class="cls-2" d="M213.8,82.6l-7.2,23.5c-.3.9-.8,1.6-1.6,2l-64.9,37.4c-1.7,1-3.8.4-4.8-1.3l-35.2-61.2c-1-1.7-.4-3.8,1.3-4.8l80.4-46.4c1.7-1,3.8-.4,4.8,1.3l26.9,46.7c.5.8.6,1.9.3,2.8h0Z"/>
      <path class="cls-5" d="M186,31.7l5.5,24c.2.9,0,1.8-.4,2.5l-37.4,64.9c-1,1.7-3.1,2.3-4.8,1.3l-61.1-35.4c-1.7-1-2.3-3.1-1.3-4.8L132.9,3.7c1-1.7,3.1-2.3,4.8-1.3l46.6,27c.8.5,1.4,1.3,1.7,2.3h0Z"/>
      <path class="cls-1" d="M139.2,3.2l16.7,18c.6.7.9,1.5.9,2.4v74.9c0,1.9-1.6,3.5-3.5,3.5h-70.6c-1.9-.1-3.5-1.7-3.5-3.7V5.5c0-1.9,1.6-3.5,3.5-3.5h53.9c1,0,1.9.5,2.6,1.2h0Z"/>
      <path class="cls-10" d="M81.9,2.1l23.5,7.2c.9.3,1.6.8,2,1.6l37.4,64.9c1,1.7.4,3.8-1.3,4.8l-61.2,35.2c-1.7,1-3.8.4-4.8-1.3L31.1,34.1c-1-1.7-.4-3.8,1.3-4.8L79.1,2.4c.8-.5,1.9-.6,2.8-.3h0Z"/>
      <path class="cls-8" d="M31.4,29.5l24-5.5c.9-.2,1.8,0,2.5.4l64.9,37.4c1.7,1,2.3,3.1,1.3,4.8l-35.4,61.1c-1,1.7-3.1,2.3-4.8,1.3L3.5,82.7c-1.7-1-2.3-3.1-1.3-4.8L29.2,31.2c.5-.8,1.3-1.4,2.3-1.7h0Z"/>
      <path class="cls-11" d="M2.9,77.5l18-16.7c.7-.6,1.5-.9,2.4-.9h74.9c1.9,0,3.5,1.6,3.5,3.5v70.6c-.1,1.9-1.7,3.5-3.7,3.5H5.2c-1.9,0-3.5-1.6-3.5-3.5v-53.9c0-1,.5-1.9,1.2-2.6h0Z"/>
      <path class="cls-12" d="M1.9,132.7l7.2-23.5c.3-.9.8-1.6,1.6-2l64.9-37.4c1.7-1,3.8-.4,4.8,1.3l35.2,61.2c1,1.7.4,3.8-1.3,4.8l-80.4,46.4c-1.7,1-3.8.4-4.8-1.3L2.2,135.5c-.5-.8-.6-1.9-.3-2.8h0Z"/>
      <path class="cls-9" d="M29.6,183.2l-5.5-24c-.2-.9,0-1.8.4-2.5l37.4-64.9c1-1.7,3.1-2.3,4.8-1.3l61.1,35.4c1.7,1,2.3,3.1,1.3,4.8l-46.4,80.4c-1,1.7-3.1,2.3-4.8,1.3l-46.6-27c-.8-.5-1.4-1.3-1.7-2.3h0Z"/>
      <path class="cls-4" d="M78.5,211.8l-16.7-18c-.6-.7-.9-1.5-.9-2.4v-74.9c0-1.9,1.6-3.5,3.5-3.5h70.6c1.9.1,3.5,1.7,3.5,3.7v92.8c0,1.9-1.6,3.5-3.5,3.5h-53.9c-1,0-1.9-.5-2.6-1.2h0Z"/>
      <path class="cls-7" d="M135.7,212.8l-23.5-7.2c-.9-.3-1.6-.8-2-1.6l-37.4-64.9c-1-1.7-.4-3.8,1.3-4.8l61.2-35.2c1.7-1,3.8-.4,4.8,1.3l46.4,80.4c1,1.7.4,3.8-1.3,4.8l-46.7,26.9c-.8.5-1.9.6-2.8.3h0Z"/>
      <path class="cls-6" d="M184.4,186.3l-24,5.5c-.9.2-1.8,0-2.5-.4l-64.9-37.4c-1.7-1-2.3-3.1-1.3-4.8l35.4-61.1c1-1.7,3.1-2.3,4.8-1.3l80.4,46.4c1.7,1,2.3,3.1,1.3,4.8l-27,46.6c-.5.8-1.3,1.4-2.3,1.7h0Z"/>
      <path class="cls-3" d="M212.8,138.1l-18,16.7c-.7.6-1.5.9-2.4.9h-74.9c-1.9,0-3.5-1.6-3.5-3.5v-70.6c.1-1.9,1.7-3.5,3.7-3.5h92.8c1.9,0,3.5,1.6,3.5,3.5v53.9c0,1-.5,1.9-1.2,2.6h0Z"/>
    </g>
  </g>
</svg>