<?xml version="1.0" encoding="utf-8"?>
<!-- Generator: Adobe Illustrator 28.3.0, SVG Export Plug-In . SVG Version: 6.00 Build 0)  -->
<svg version="1.1" id="Layer_1" xmlns="http://www.w3.org/2000/svg" xmlns:xlink="http://www.w3.org/1999/xlink" x="0px" y="0px"
	 viewBox="0 0 501 501" style="enable-background:new 0 0 501 501;" xml:space="preserve">
<style type="text/css">
	.st0{fill:#FF0000;stroke:#231F20;stroke-miterlimit:10;}
	.st1{fill:#FFFF00;stroke:#231F20;stroke-miterlimit:10;}
	.st2{fill:#0000FF;stroke:#231F20;stroke-miterlimit:10;}
	.st3{font-family:'ArialMT';}
	.st4{font-size:180px;}
	.st5{letter-spacing:-1;}
</style>
<path class="st0" d="M250.5,0.5v250L34,375.6C12.7,338.8,0.5,296.1,0.5,250.5C0.5,112.4,112.4,0.5,250.5,0.5z"/>
<path class="st1" d="M500.5,250.5c0,45.5-12.2,88.2-33.5,125l-216.5-125V0.5C388.6,0.5,500.5,112.4,500.5,250.5z"/>
<path class="st2" d="M467,375.5c-6.9,12-14.9,23.4-23.6,34c-45.9,55.6-115.2,91-192.9,91C158,500.5,77.3,450.3,34,375.6l216.5-125.1
	L467,375.5z"/>
<text transform="matrix(1 0 0 1 67.9 307.141)" class="st3 st4 st5">R</text>
<text transform="matrix(1 0 0 1 189.2656 307.1404)" class="st3 st4">Y</text>
<text transform="matrix(1 0 0 1 300.88 307.1414)" class="st3 st4">B</text>
</svg>
