<?xml version="1.0" encoding="UTF-8"?>
<svg xmlns="http://www.w3.org/2000/svg" version="1.1" viewBox="0 0 400 85">
  <defs>
    <style>
      .cls-1 {
        fill: #fff;
        stroke: #fff;
        stroke-miterlimit: 10;
        stroke-width: .5px;
      }
    </style>
  </defs>
  <!-- Generator: Adobe Illustrator 28.6.0, SVG Export Plug-In . SVG Version: 1.2.0 Build 709)  -->
  <g>
    <g id="Layer_1">
      <g>
        <path class="cls-1" d="M35.2,78.2c-3.6,1.3-6.9,1.9-10,1.8-3.1-.2-6.1-1-9.3-2.5,1.4-3.2,2.2-4.7,3.7-7.9,2.1,1.1,4.2,1.8,6.3,2,2.1.2,4.5-.1,7.1-1.1,2.3-.9,4-2,5.1-3.3,1.1-1.4,1.3-2.8.8-4.3-.5-1.3-1.2-2.3-2.3-2.8-1.1-.5-2.4-.9-3.9-.9-1.5,0-3.2,0-4.9,0-1.8.1-3.6.2-5.4.2-1.8,0-3.6-.2-5.3-.6-1.7-.4-3.3-1.2-4.6-2.3-1.4-1.1-2.5-2.8-3.4-5-1.1-2.6-1.2-5.1-.5-7.5.7-2.4,2.1-4.6,4.3-6.6,2.2-2,4.9-3.6,8.1-4.7,3.4-1.2,6.7-1.8,9.9-1.6,3.2.2,5.9.9,8.2,2.1-1.8,3.1-2.7,4.6-4.4,7.8-1.9-.9-3.8-1.4-5.5-1.6-1.8-.1-3.6.2-5.5.9-2.2.8-3.8,1.8-4.7,3.1-1,1.2-1.2,2.5-.7,3.9.5,1.2,1.2,2,2.3,2.4,1.1.4,2.4.6,4,.7,1.6,0,3.2,0,5.1,0,1.8,0,3.7-.1,5.5,0,1.8,0,3.6.4,5.3.9,1.7.5,3.2,1.4,4.5,2.7,1.3,1.3,2.4,3.1,3.1,5.4,1.3,4.1.9,7.8-1.4,11.2-2.2,3.4-5.9,6-11.1,7.9Z"/>
        <path class="cls-1" d="M73,65.9c-3.3.9-6.5,1.1-9.5.5-3-.6-5.7-1.9-7.9-3.8-2.3-1.9-3.9-4.4-4.9-7.4-1-3-1.1-6-.3-8.8.8-2.9,2.3-5.4,4.6-7.6,2.3-2.2,5.1-3.8,8.5-4.7,3.2-.9,6.3-1,9.1-.3,2.9.7,5.3,2,7.3,4,2,2,3.3,4.5,4,7.5.1.6.2,1.1.3,1.7,0,.6.1,1.2.1,2-9.3,2.2-18.5,4.8-27.6,7.7-.8-2.5-1.1-3.7-1.9-6.2,9.4-2.9,14.2-4.3,23.7-6.7-1.2,1.4-1.8,2.1-3,3.6-.5-1.8-1.3-3.3-2.2-4.3-1-1.1-2.1-1.8-3.5-2.1-1.3-.3-2.9-.2-4.6.2-1.8.5-3.3,1.3-4.4,2.4-1.1,1.1-1.9,2.4-2.2,4-.3,1.5-.2,3.2.3,5,.6,1.9,1.4,3.3,2.6,4.5,1.1,1.1,2.5,1.9,4.1,2.2,1.6.3,3.3.2,5.1-.3,1.7-.5,3.1-1.1,4.3-2,1.2-.9,2.2-2,2.9-3.3,2.6,1.4,3.9,2.2,6.5,3.6-1.2,2.2-2.8,4-4.8,5.5-2,1.5-4.3,2.6-6.8,3.3Z"/>
        <path class="cls-1" d="M93.4,60c-3.6-15.5-7.1-31-10.7-46.4,3.8-.9,5.8-1.3,9.6-2.1,3.3,15.5,6.5,31.1,9.8,46.6-3.5.7-5.2,1.1-8.7,1.9Z"/>
        <path class="cls-1" d="M125.5,54.5c-3.4.5-6.5.3-9.5-.6-2.9-.9-5.4-2.5-7.4-4.7-2-2.2-3.4-4.8-4-8-.6-3.1-.4-6,.7-8.8,1.1-2.8,2.9-5.1,5.4-7,2.5-1.9,5.5-3.2,8.9-3.7,3.3-.5,6.3-.3,9.1.7,2.8,1,5,2.6,6.8,4.8,1.7,2.2,2.8,4.8,3.2,7.9,0,.6.1,1.1.1,1.7,0,.6,0,1.3-.1,2-9.4,1.2-18.8,2.7-28.1,4.5-.5-2.5-.7-3.8-1.2-6.3,9.6-1.8,14.5-2.6,24.2-4-1.4,1.3-2.1,1.9-3.4,3.2-.3-1.9-.9-3.4-1.7-4.5-.8-1.2-1.9-2-3.2-2.5-1.3-.5-2.8-.6-4.5-.3-1.8.3-3.4.9-4.6,1.9-1.2,1-2.1,2.2-2.6,3.7-.5,1.5-.6,3.2-.2,5,.3,1.9,1,3.5,2,4.8,1,1.3,2.3,2.2,3.8,2.6,1.5.5,3.2.6,5.1.3,1.7-.3,3.2-.8,4.5-1.5,1.3-.7,2.4-1.7,3.2-3,2.4,1.7,3.6,2.6,6,4.4-1.4,2-3.2,3.7-5.3,4.9-2.1,1.2-4.5,2.1-7.1,2.5Z"/>
        <path class="cls-1" d="M161.7,50.2c-3.3.3-6.3-.2-9.1-1.4-2.8-1.2-5.1-2.9-7-5.3-1.8-2.3-3-5-3.3-8.1-.4-3.1,0-6.1,1.4-8.8,1.3-2.7,3.3-4.9,6-6.6,2.7-1.7,5.8-2.7,9.4-3,2.7-.2,5.3,0,7.7.8,2.4.7,4.5,2,6.3,3.6-2.3,2.4-3.5,3.6-5.8,6-.9-.9-2-1.6-3.3-1.9-1.3-.4-2.7-.5-4.2-.4-1.7.1-3.2.6-4.5,1.5-1.3.8-2.2,1.9-2.9,3.3-.6,1.3-.9,2.8-.7,4.5.2,1.7.7,3.1,1.5,4.3.9,1.2,2,2.1,3.4,2.7,1.4.6,2.9.9,4.5.7,1.5-.1,2.8-.5,4-1.1,1.2-.6,2.2-1.4,3-2.4,2.5,2.1,3.7,3.1,6.1,5.2-1.5,1.8-3.3,3.3-5.5,4.4-2.1,1.1-4.5,1.7-7.1,1.9Z"/>
        <path class="cls-1" d="M175.5,24.2c-.1-3-.2-4.5-.4-7.6,10.3-.5,15.5-.6,25.9-.6,0,3,0,4.5,0,7.6-10.2,0-15.3.1-25.5.6ZM184.4,48.1c-.5-15-1-30-1.5-45,3.9-.1,5.8-.2,9.7-.2.2,15,.4,30,.6,45.1-3.6,0-5.3,0-8.9.2Z"/>
        <path class="cls-1" d="M242.2,50.5c-3.5-.3-6.7-1.2-9.6-2.6-2.9-1.4-5.4-3.3-7.6-5.6-2.2-2.3-3.8-4.9-4.9-7.8-1.1-2.9-1.7-6.1-1.5-9.4.1-3.3.9-6.4,2.3-9.3,1.4-2.8,3.4-5.3,5.9-7.3,2.5-2,5.5-3.5,8.8-4.6,3.4-1,7-1.3,10.8-1,4.3.4,7.9,1.4,10.9,2.9,3,1.5,5.6,3.5,7.7,5.9-3,2.1-4.5,3.1-7.5,5.3-1.2-1.6-2.8-2.8-4.8-3.8-2-1-4.3-1.6-7-1.9-2.3-.2-4.5,0-6.6.5-2,.6-3.8,1.5-5.4,2.8-1.5,1.3-2.8,2.9-3.6,4.7-.9,1.9-1.4,3.9-1.5,6.2-.1,2.3.1,4.5.8,6.4.6,2,1.6,3.7,2.9,5.1,1.3,1.5,2.9,2.6,4.7,3.5,1.8.9,3.8,1.4,6.1,1.6,2.7.2,5.1,0,7.1-.5,2-.6,3.8-1.5,5.3-2.8,2.3,2.7,3.4,4.1,5.7,6.9-2.5,1.8-5.4,3.1-8.4,4-3.1.9-6.5,1.1-10.3.8Z"/>
        <path class="cls-1" d="M280.7,55.5c-3.3-.6-6.1-1.8-8.5-3.6-2.4-1.9-4.2-4.1-5.4-6.9-1.2-2.7-1.6-5.6-1.2-8.8.4-3.1,1.6-5.8,3.5-8,1.9-2.2,4.4-3.9,7.4-4.9,3-1,6.3-1.2,9.8-.6,3.5.6,6.6,1.9,9.1,3.9,2.5,2,4.3,4.3,5.4,7.1,1.1,2.8,1.3,5.7.7,8.8-.6,3.1-2,5.7-4.1,7.8-2.1,2.2-4.5,3.7-7.5,4.7-2.9.9-6,1.1-9.3.5ZM282.1,47.5c1.7.3,3.2.2,4.7-.3,1.4-.5,2.6-1.3,3.6-2.4.9-1.1,1.6-2.5,1.9-4.1.3-1.6.2-3.2-.3-4.6-.5-1.4-1.4-2.6-2.5-3.5-1.2-.9-2.6-1.6-4.4-1.9-1.7-.3-3.3-.2-4.7.3-1.4.5-2.6,1.3-3.5,2.5-.9,1.1-1.5,2.5-1.8,4.2-.3,1.7-.1,3.2.4,4.5.5,1.4,1.4,2.5,2.5,3.5,1.2.9,2.5,1.6,4.2,1.8Z"/>
        <path class="cls-1" d="M303.8,59.4c3.5-15.5,6.9-31,10.4-46.5,3.8.9,5.8,1.3,9.6,2.2-3.8,15.4-7.5,30.9-11.3,46.3-3.5-.8-5.2-1.3-8.7-2Z"/>
        <path class="cls-1" d="M334.9,68.2c-3.2-.9-5.9-2.5-8.1-4.6-2.2-2.1-3.7-4.6-4.6-7.5-.9-2.8-1-5.8-.2-8.9.8-3,2.3-5.5,4.5-7.5,2.2-2,4.9-3.3,8-4,3.1-.7,6.4-.5,9.8.5,3.5,1,6.4,2.7,8.6,4.9,2.3,2.2,3.8,4.8,4.6,7.7.8,2.9.7,5.8-.3,8.8-1,3-2.7,5.4-5,7.3-2.3,1.9-5,3.2-8,3.7-3,.6-6.1.4-9.4-.6ZM337.2,60.4c1.6.5,3.2.6,4.7.2,1.5-.3,2.8-1,3.8-2,1.1-1,1.9-2.3,2.4-3.9.5-1.6.6-3.1.2-4.6-.4-1.5-1.1-2.7-2.1-3.8-1-1.1-2.4-1.9-4.1-2.4-1.7-.5-3.2-.6-4.7-.2-1.5.3-2.8,1-3.8,2-1.1,1-1.8,2.3-2.2,4-.4,1.6-.5,3.1-.1,4.5.4,1.4,1.1,2.7,2.1,3.7,1,1.1,2.4,1.8,4,2.3Z"/>
        <path class="cls-1" d="M357.5,74.8c3.5-10,7-20,10.6-30,3.6,1.3,5.4,1.9,9.1,3.3-3.7,9.9-7.4,19.9-11.1,29.8-3.4-1.3-5.1-1.9-8.5-3.1ZM372.1,61.4c-1-1.4-1.6-2.1-2.6-3.4,1.7-3.5,4-6,6.7-7.4,2.8-1.4,6-1.4,9.7,0,1.6.6,3,1.5,4.1,2.4,1.1,1,1.9,2.2,2.5,3.7-3.2,1.4-4.8,2.1-7.9,3.5-.3-.7-.7-1.3-1.3-1.8-.6-.5-1.4-.9-2.3-1.3-1.9-.7-3.7-.8-5.2-.2-1.6.6-2.8,2.1-3.7,4.3Z"/>
      </g>
    </g>
  </g>
</svg>