<?xml version="1.0" encoding="UTF-8"?>
<svg xmlns="http://www.w3.org/2000/svg" version="1.1" viewBox="0 0 400 200">
  <defs>
    <style>
      .cls-1, .cls-2 {
        fill: #ed1c24;
      }

      .cls-3 {
        fill: #fff;
      }

      .cls-4 {
        opacity: .5;
      }

      .cls-5 {
        fill: #383838;
      }

      .cls-2 {
        stroke: #231f20;
        stroke-miterlimit: 10;
      }
    </style>
  </defs>
  <!-- Generator: Adobe Illustrator 28.6.0, SVG Export Plug-In . SVG Version: 1.2.0 Build 709)  -->
  <g>
    <g id="Layer_1">
      <path class="cls-2" d="M375.6,200H22.9C-28.6,106.4,22.9,0,22.9,0l352.9.3s54.6,81.2-.1,199.7Z"/>
      <g class="cls-4">
        <path class="cls-1" d="M182.4,12.3c-47,.4-94,.8-141.1,1.3-2.3,4.6-4.8,10.3-6.6,17.2-2.8,10.5-3.1,19.6-2.8,26.3"/>
        <path class="cls-3" d="M182.4,12.8l-35.3,1.7-35.3,1.6-35.3,1.6-17.6.8c-5.9.3-11.8.5-17.6.5l4.7-2.9c-1.6,3.1-2.9,6.4-4.5,9.6-.8,1.6-1.5,3.2-2.2,4.9-.7,1.7-1.3,3.3-1.9,5.1-1.2,3.4-2.2,6.9-3,10.5-.4,1.8-.8,3.6-1.1,5.5-.3,1.8-.6,3.7-.8,5.6h-1c-.4-1.8-.7-3.7-1-5.6-.3-1.9-.4-3.8-.5-5.8-.2-3.9-.1-7.8.3-11.7.4-3.9,1.1-7.8,2-11.7,1-3.9,2.6-7.5,4.4-11.1l1.4-2.8h3.3c5.9-.2,11.8,0,17.6,0l17.6.5,35.3.9,35.3.9,35.3,1v1Z"/>
      </g>
      <g class="cls-4">
        <path class="cls-1" d="M22.9,200c116.4-1.6,232.8-3.3,349.2-4.9,8.9-16.7,24.1-50.2,25.4-95.3,1.3-45.1-11.9-79.5-19.9-96.6"/>
        <path class="cls-5" d="M22.9,199.5s349.1-9.5,349.1-9.5c0,0-4.4,2.7-4.4,2.7,24.6-42.5,33.1-93.8,24-142.1-3-16.2-7.9-32.1-14.6-47.2l.9-.4c14.6,30,22.3,63.4,22,96.9-.3,33.8-8.4,67.3-23.5,97.6,0,0-1.5,2.7-1.5,2.7h-2.9c0-1-351.2,2.2-349.3-.7h0Z"/>
      </g>
    </g>
  </g>
</svg>