<?xml version="1.0" encoding="UTF-8"?>
<svg xmlns="http://www.w3.org/2000/svg" xmlns:xlink="http://www.w3.org/1999/xlink" version="1.1" viewBox="0 0 400 124.7">
  <defs>
    <style>
      .cls-1 {
        fill: url(#linear-gradient);
        stroke: #231f20;
        stroke-miterlimit: 10;
      }
    </style>
    <linearGradient id="linear-gradient" x1="0" y1="62.3" x2="400" y2="62.3" gradientUnits="userSpaceOnUse">
      <stop offset="0" stop-color="#84ff00"/>
      <stop offset=".3" stop-color="#ffe100"/>
      <stop offset=".6" stop-color="#ff8c00"/>
      <stop offset="1" stop-color="#ff3dbc"/>
    </linearGradient>
  </defs>
  <!-- Generator: Adobe Illustrator 28.6.0, SVG Export Plug-In . SVG Version: 1.2.0 Build 709)  -->
  <g>
    <g id="Layer_1">
      <path class="cls-1" d="M1.9,58.5c6.1,11.6,15.1,15.5,26,15.5s14.3-3.4,14.3-7.2C42.3,53.8,0,61.7,0,30.1S14,2,39.3,2s35.3,10.7,35.3,23.1-6.2,16.7-16.6,16.7-9-.9-13-3.9c3.1-8.6,4.9-22.2-4.9-22.2s-9.8,6.1-9.8,13.5c0,24,43.5,12.9,43.5,40.1s-12.1,27.7-39.3,27.7S-4.8,87.4,1.9,58.5ZM83.2,110.5c.1-6.4.5-19.3.5-39.3s-.1-34.5-5.9-39.9c5.4-2.7,11.1-3.1,14.9-3,8.4.1,13.5,3.4,14.6,11.7,5.4-10,13.7-12.2,19.6-12.2s23.3,1.9,23.3,29.5-12,39-33.7,39-6.2-.4-8.6-.9c.9,14.3,2.6,23.1,5.7,25.8-5.4,2.7-11.1,3.1-14.9,3-10-.1-15.5-4.8-15.3-13.7ZM124.9,58.6c0-10.3-3-13.9-7-13.9-5.7,0-10.6,8.2-10.6,23.6v15.3c13.5,3.7,17.5-10.6,17.5-25ZM158.9,93.5c1.3-30.8.1-55.3-.8-63.9,4.1,1.8,11.1,3.3,15.7,3.3,8.5,0,14.2-5.1,24.5-5.1s17.6,7.9,17.6,14.9-4.8,14.8-13.8,14.8-6.3-.5-9-2.3c2.1-5.2,2.8-14.9-3-14.9s-5.3,1.2-7.1,4.3c-.3,14.9.4,29.9.8,44.8.1,4.5-7.5,6.4-14.3,6.4s-8-.8-10.7-2.3ZM222.3,76.9c.5-30.3,1-40.2-4.6-45.6,5.5-2.7,11.2-3.1,15.1-3,10,.1,15.2,4.8,14.7,17.5-.3,5.9-.3,11.7-.4,17.7-.3,13.9-.4,23.8,5.4,26.7-4.3,5.3-11.3,6.2-15.2,6.2-10,0-15.2-5.4-14.9-19.5ZM234.8,0c7.9,0,14.3,4.3,14.3,12.6s-6.4,12.6-14.3,12.6-14.3-4.2-14.3-12.6S226.9,0,234.8,0ZM299.2,78.2v-15.2c0-16.7-2.7-24.3-16-20.4-.4,16,.4,30.8.8,46.8.1,4.5-7.5,6.4-14.3,6.4s-8-.8-10.7-2.3c.4-9.8.5-19.1.5-27.3,0-17.5-.6-30.7-1.3-36.6,4.1,1.8,8.6,2.2,11.9,2.2,10.2,0,16.6-4,27.2-4,21.8,0,25.9,15.2,25.9,35.7s0,23.8,5.9,26.7c-4.2,5.3-11.2,6.2-15.1,6.2-10,0-14.8-5.4-14.8-18.2ZM332,110.6c0-9,8.9-14,19.1-14.7-7.3-1.3-18.8-7-18.8-29.1s12-39,33.8-39,15.7,4,23.3,4,6.4-.4,10.2-2.2c-1.3,31.8.1,55.9.3,57.2,2.8,27.1-17,37.9-42,37.9s-25.8-3.6-25.8-14ZM362.1,111.9c9.5,0,14.7-8.8,13.1-28-5.1,9.7-12.9,12.1-18.8,12.4-5.3,10.6-.8,15.6,5.7,15.6ZM364.6,79.5c5.7,0,10.6-8.2,10.6-23.6v-15.3c-13.5-3.7-17.5,10.6-17.5,25s3,13.9,7,13.9Z"/>
    </g>
  </g>
</svg>