<?xml version="1.0" encoding="UTF-8"?>
<svg xmlns="http://www.w3.org/2000/svg" xmlns:xlink="http://www.w3.org/1999/xlink" version="1.1" viewBox="0 0 400 76">
  <defs>
    <style>
      .cls-1 {
        fill: url(#linear-gradient);
        stroke: #231f20;
        stroke-miterlimit: 10;
      }
    </style>
    <linearGradient id="linear-gradient" x1="0" y1="37.3" x2="400" y2="37.3" gradientUnits="userSpaceOnUse">
      <stop offset="0" stop-color="#adffed"/>
      <stop offset=".3" stop-color="#91c7ff"/>
      <stop offset=".7" stop-color="#c399ff"/>
      <stop offset="1" stop-color="#eda8ff"/>
    </linearGradient>
  </defs>
  <!-- Generator: Adobe Illustrator 28.6.0, SVG Export Plug-In . SVG Version: 1.2.0 Build 709)  -->
  <g>
    <g id="Layer_1">
      <path class="cls-1" d="M1.5,44.3c4.8,9.1,11.8,12.1,20.4,12.1s11.2-2.6,11.2-5.7c0-10.1-33.2-3.9-33.2-28.7S11,0,30.9,0s27.7,8.4,27.7,18.1-4.9,13.2-13.1,13.2-7.1-.7-10.2-3c2.4-6.8,3.8-17.4-3.8-17.4s-7.7,4.8-7.7,10.6c0,18.8,34.2,10.1,34.2,31.5s-9.5,21.8-30.9,21.8S-3.7,67.1,1.5,44.3ZM65.7,51.9c0-16.8,0-24.6-4.7-26.8,4.4-4.1,9.8-4.9,12.9-4.9,7.9,0,10.5,4.3,10.6,14.3v15.4c.2,8.1,2.4,10.9,5.6,10.9,4.4,0,6.5-6.4,6.9-18.3-.2-5.3-.4-11-.5-16.8,0-3.5,5.9-5.1,11.2-5.1s6.3.6,8.5,1.2c-.4,6.6-.6,12.7-.6,18.1,0,19.3.1,27.1,4.7,31.4-4.2,2.1-8.7,2.4-11.7,2.3-6.5,0-10.5-2.5-11.3-8.9-3.7,7.3-9.6,9.3-14.2,9.3s-17.3-.5-17.3-22.2ZM125.4,71.8c1-24.2.1-43.4-.6-50.2,3.2,1.4,6.8,1.7,9.3,1.7,8,0,13.1-3.1,21.4-3.1s10.5,1.9,13.3,5.2c5.4-3.9,10.8-5.2,15.8-5.2,17.1,0,19.3,11.9,19.3,28s0,18.7,4.7,20.9c-3.3,4.2-8.8,4.9-11.8,4.9-8,0-11.6-4.2-11.6-14.3v-11.9c0-11.6-.4-16.5-6.5-16.5s-3.6.4-6.1,2.5c.9,4.1,1.1,9.1,1.1,14.6s.4,13.5.6,20.1c0,3.5-5.9,5.1-10.2,5.1s-6.3-.6-8.4-1.8c.4-8.8.5-16.9.4-24-.2-11.6-.9-16.8-7-16.8s-2.7.2-4.6.8c-.3,12.5.3,24.2.6,36.7,0,3.5-5.9,5.1-11.2,5.1s-6.3-.6-8.4-1.8ZM212.7,71.8c1-24.2.1-43.4-.6-50.2,3.2,1.4,6.8,1.7,9.3,1.7,8,0,13.1-3.1,21.3-3.1s10.5,1.9,13.3,5.2c5.4-3.9,10.8-5.2,15.8-5.2,17.1,0,19.3,11.9,19.3,28s0,18.7,4.7,20.9c-3.3,4.2-8.8,4.9-11.8,4.9-8,0-11.6-4.2-11.6-14.3v-11.9c0-11.6-.4-16.5-6.5-16.5s-3.6.4-6.1,2.5c.9,4.1,1.1,9.1,1.1,14.6s.4,13.5.6,20.1c0,3.5-5.9,5.1-10.2,5.1s-6.3-.6-8.4-1.8c.4-8.8.5-16.9.4-24-.2-11.6-.9-16.8-7-16.8s-2.7.2-4.6.8c-.3,12.5.3,24.2.6,36.7,0,3.5-5.9,5.1-11.2,5.1s-6.3-.6-8.4-1.8ZM296.2,47c0-14.8,9.8-26.8,28.5-26.8s22.7,9,22.7,16.5-9.8,17.2-29.6,15.9c2.2,4.7,6.9,7.5,15.1,7.5s9.9-.6,15.9-4.1c-3.6,13.4-13.3,18-24.6,18-17.9,0-27.9-12-27.9-27ZM316.1,45.4c7.3,0,12-4,12-10.4s-1.6-7-5-7c-4.8,0-7.2,6.7-7.2,14.9s0,1.7.1,2.5ZM355.2,71.8c1-24.2.1-43.4-.6-50.2,3.2,1.4,8.7,2.6,12.3,2.6,6.7,0,11.1-4,19.2-4s13.9,6.2,13.9,11.7-3.7,11.6-10.8,11.6-5-.4-7.1-1.8c1.6-4,2.2-11.7-2.3-11.7s-4.1.9-5.6,3.3c-.2,11.7.3,23.5.6,35.2,0,3.5-5.9,5.1-11.2,5.1s-6.3-.6-8.4-1.8Z"/>
    </g>
  </g>
</svg>