<?xml version="1.0" encoding="utf-8"?>
<svg viewBox="0 0 400 400" xmlns="http://www.w3.org/2000/svg" xmlns:bx="https://boxy-svg.com">
  <ellipse style="fill: rgb(216, 216, 216); " cx="199.459" cy="200.268" rx="200" ry="200"/>
  <path style="fill: rgb(216, 216, 216); stroke: rgb(255, 255, 255); stroke-width: 10; transform-origin: 133.789px 182.144px;" d="M 237.339 149.662 L 136.41 303.993 C 110.958 304.981 59.91 274.849 55.889 243.426 L 152.973 95.4 C 169.911 86.114 232.497 119.285 237.339 149.662 Z"/>
  <path d="M 230.951 128.939 m -61.983 0 a 61.983 62.864 0 1 0 123.966 0 a 61.983 62.864 0 1 0 -123.966 0 Z M 230.951 128.939 m -37.19 0 a 37.19 37.717 0 0 1 74.38 0 a 37.19 37.717 0 0 1 -74.38 0 Z" style="fill: rgb(216, 216, 216); stroke: white; stroke-width: 10;" transform="matrix(0.9798406362533569, -0.19978080689907074, 0.1981661319732666, 0.9801698923110962, -25.306163787841797, 71.30007171630861)" bx:shape="ring 230.951 128.939 37.19 37.717 61.983 62.864 1@839a2ba4"/>
  <rect x="330.911" y="551.683" width="38.894" height="96.803" style="fill: rgb(216, 216, 216); stroke: white; stroke-width: 10; transform-origin: 350.357px 600.084px;" transform="matrix(0.849604010582, -0.527421116829, 0.524209916592, 0.851597011089, -53.75033581184, -340.840989396355)"/>
  <rect x="362.83" y="155.847" width="42.646" height="27.346" style="fill: rgb(216, 216, 216); stroke: white; stroke-width: 10; transform-origin: 384.153px 169.52px;" transform="matrix(0.849604010582, -0.527421116829, 0.524209916592, 0.851597011089, -113.896237661572, 47.987575263814)"/>
</svg>