<?xml version="1.0" encoding="UTF-8"?>
<svg xmlns="http://www.w3.org/2000/svg" xmlns:xlink="http://www.w3.org/1999/xlink" version="1.1" viewBox="0 0 400 93.2">
  <defs>
    <style>
      .cls-1 {
        fill: url(#linear-gradient);
        stroke: #231f20;
        stroke-miterlimit: 10;
      }
    </style>
    <linearGradient id="linear-gradient" x1="0" y1="45.9" x2="400" y2="45.9" gradientUnits="userSpaceOnUse">
      <stop offset="0" stop-color="#0078d4"/>
      <stop offset=".3" stop-color="#4d0094"/>
      <stop offset=".7" stop-color="#6d007f"/>
      <stop offset="1" stop-color="#7f002e"/>
    </linearGradient>
  </defs>
  <!-- Generator: Adobe Illustrator 28.6.0, SVG Export Plug-In . SVG Version: 1.2.0 Build 709)  -->
  <g>
    <g id="Layer_1">
      <path class="cls-1" d="M57,67.6c-4,18.3-11.9,24.2-20.9,24.2s-18.8-.9-24.3-36.2C7.6,28.2,7.1,15.3,0,11.7,6.3,4.9,14.1,3.8,18.5,3.8c11.7,0,15.8,7.1,17.3,23.4,1.4,15,1.7,33,5.2,46.7,5.9-9.7,9.4-26,10.5-39.7-2.1-13.1-3.8-20-8.7-22.6,6.3-6.7,14.1-7.8,18.5-7.8,10.1,0,13.9,7.1,15.3,23.4,1.3,14.8,1.6,32.6,5,46.4,10.2-18.6,12.1-58.7,5.8-68.9,3.6-1.4,8.5-2.2,12.9-2.2,9.9,0,19.9,4.3,19.9,17.7s-17.4,71.6-42.7,71.6-14.7-.6-20.5-24.2ZM125.8,73.2c.5-28.8,1-38.3-4.4-43.4,5.3-2.6,10.7-2.9,14.4-2.8,9.6.1,14.5,4.5,14,16.7-.2,5.6-.2,11.2-.4,16.8-.2,13.2-.4,22.7,5.2,25.4-4,5-10.8,5.9-14.5,5.9-9.6,0-14.5-5.2-14.2-18.5ZM137.7,0c7.5,0,13.6,4,13.6,12s-6.1,12-13.6,12-13.6-4-13.6-12,6.1-12,13.6-12ZM199,74.4v-14.5c0-15.9-2.6-23.2-15.2-19.4-.4,15.2.4,29.3.7,44.5.1,4.3-7.1,6.1-13.6,6.1s-7.6-.7-10.2-2.2c.4-9.3.5-18.2.5-26,0-16.7-.6-29.2-1.2-34.8,3.9,1.7,8.2,2.1,11.3,2.1,9.7,0,15.8-3.8,25.9-3.8,20.7,0,24.7,14.5,24.7,34s0,22.7,5.6,25.4c-4,5-10.7,5.9-14.3,5.9-9.6,0-14.1-5.2-14.1-17.3ZM236.3,68.8v-11.2c0-3.1-.1-7.6-.2-13.2h-7.4c-2.6-1.2-2.1-15.9,3.1-15.9h3.9v-1.5c-.4-13.6,17.3-16.3,24.2-14.5-.2,4.5-.5,8.8-.6,15.9h9.6c2.6,1.2,2.1,15.9-3.1,15.9h-6.6v6.4c0,22.9,2.5,32.4,10.3,32.6-5.3,6.6-14.1,7.7-18.6,7.7-12.4,0-14.5-10.2-14.5-22.3ZM274.2,59c0-17.9,11.9-32.5,34.6-32.5s27.5,10.9,27.5,20-11.9,20.9-35.9,19.3c2.7,5.6,8.3,9.1,18.3,9.1s12-.7,19.3-4.9c-4.4,16.2-16.1,21.8-29.8,21.8-21.7,0-33.9-14.6-33.9-32.7ZM298.3,57c8.8-.1,14.6-4.9,14.6-12.6s-2-8.5-6-8.5c-5.8,0-8.7,8.1-8.7,18s0,2.1.1,3.1ZM345.7,89c1.2-29.3.1-52.6-.7-60.8,3.9,1.7,10.5,3.2,15,3.2,8.1,0,13.5-4.9,23.3-4.9s16.8,7.5,16.8,14.2-4.5,14.1-13.1,14.1-6-.5-8.6-2.2c2-4.9,2.7-14.2-2.8-14.2s-5,1.1-6.7,4c-.2,14.2.4,28.5.7,42.7.1,4.3-7.1,6.1-13.6,6.1s-7.6-.7-10.2-2.2Z"/>
    </g>
  </g>
</svg>